<mxfile host="app.diagrams.net" modified="2024-06-12T13:03:43.691Z" agent="Mozilla/5.0 (Windows NT 10.0; Win64; x64) AppleWebKit/537.36 (KHTML, like Gecko) Chrome/124.0.0.0 Safari/537.36" etag="At581e3-0GUmP-KaP2Ge" version="24.5.3" type="device">
  <diagram name="Page-1" id="Pp3nULhGCx3XaeL6AW0G">
    <mxGraphModel dx="756" dy="410" grid="1" gridSize="10" guides="1" tooltips="1" connect="1" arrows="1" fold="1" page="1" pageScale="1" pageWidth="850" pageHeight="1500" math="0" shadow="0">
      <root>
        <mxCell id="0" />
        <mxCell id="1" parent="0" />
        <mxCell id="klCD-9j0EHLRt9dn0OF4-14" style="edgeStyle=orthogonalEdgeStyle;rounded=0;orthogonalLoop=1;jettySize=auto;html=1;exitX=0.5;exitY=1;exitDx=0;exitDy=0;entryX=0.5;entryY=0;entryDx=0;entryDy=0;" edge="1" parent="1" source="klCD-9j0EHLRt9dn0OF4-1" target="klCD-9j0EHLRt9dn0OF4-2">
          <mxGeometry relative="1" as="geometry" />
        </mxCell>
        <mxCell id="klCD-9j0EHLRt9dn0OF4-1" value="Start" style="ellipse;whiteSpace=wrap;html=1;" vertex="1" parent="1">
          <mxGeometry x="373" y="50" width="105" height="50" as="geometry" />
        </mxCell>
        <mxCell id="klCD-9j0EHLRt9dn0OF4-15" style="edgeStyle=orthogonalEdgeStyle;rounded=0;orthogonalLoop=1;jettySize=auto;html=1;exitX=0.5;exitY=1;exitDx=0;exitDy=0;entryX=0.5;entryY=0;entryDx=0;entryDy=0;" edge="1" parent="1" source="klCD-9j0EHLRt9dn0OF4-2" target="klCD-9j0EHLRt9dn0OF4-3">
          <mxGeometry relative="1" as="geometry" />
        </mxCell>
        <mxCell id="klCD-9j0EHLRt9dn0OF4-2" value="Enter amount" style="shape=parallelogram;perimeter=parallelogramPerimeter;whiteSpace=wrap;html=1;fixedSize=1;" vertex="1" parent="1">
          <mxGeometry x="365" y="170" width="120" height="40" as="geometry" />
        </mxCell>
        <mxCell id="klCD-9j0EHLRt9dn0OF4-16" style="edgeStyle=orthogonalEdgeStyle;rounded=0;orthogonalLoop=1;jettySize=auto;html=1;" edge="1" parent="1" source="klCD-9j0EHLRt9dn0OF4-3" target="klCD-9j0EHLRt9dn0OF4-4">
          <mxGeometry relative="1" as="geometry" />
        </mxCell>
        <mxCell id="klCD-9j0EHLRt9dn0OF4-17" value="No" style="edgeLabel;html=1;align=center;verticalAlign=middle;resizable=0;points=[];" vertex="1" connectable="0" parent="klCD-9j0EHLRt9dn0OF4-16">
          <mxGeometry relative="1" as="geometry">
            <mxPoint as="offset" />
          </mxGeometry>
        </mxCell>
        <mxCell id="klCD-9j0EHLRt9dn0OF4-20" style="edgeStyle=orthogonalEdgeStyle;rounded=0;orthogonalLoop=1;jettySize=auto;html=1;exitX=0.5;exitY=1;exitDx=0;exitDy=0;entryX=0.5;entryY=0;entryDx=0;entryDy=0;" edge="1" parent="1" source="klCD-9j0EHLRt9dn0OF4-3" target="klCD-9j0EHLRt9dn0OF4-5">
          <mxGeometry relative="1" as="geometry" />
        </mxCell>
        <mxCell id="klCD-9j0EHLRt9dn0OF4-3" value="Check if user has loan balance" style="rhombus;whiteSpace=wrap;html=1;" vertex="1" parent="1">
          <mxGeometry x="365.5" y="280" width="120" height="110" as="geometry" />
        </mxCell>
        <mxCell id="klCD-9j0EHLRt9dn0OF4-4" value="You do not have an existing loanbalnce" style="shape=parallelogram;perimeter=parallelogramPerimeter;whiteSpace=wrap;html=1;fixedSize=1;" vertex="1" parent="1">
          <mxGeometry x="140" y="307.5" width="140" height="55" as="geometry" />
        </mxCell>
        <mxCell id="klCD-9j0EHLRt9dn0OF4-21" style="edgeStyle=orthogonalEdgeStyle;rounded=0;orthogonalLoop=1;jettySize=auto;html=1;exitX=0.5;exitY=1;exitDx=0;exitDy=0;entryX=0.5;entryY=0;entryDx=0;entryDy=0;" edge="1" parent="1" source="klCD-9j0EHLRt9dn0OF4-5" target="klCD-9j0EHLRt9dn0OF4-6">
          <mxGeometry relative="1" as="geometry" />
        </mxCell>
        <mxCell id="klCD-9j0EHLRt9dn0OF4-5" value="Promt user for payment&amp;nbsp;" style="shape=process;whiteSpace=wrap;html=1;backgroundOutline=1;" vertex="1" parent="1">
          <mxGeometry x="365.5" y="470" width="120" height="60" as="geometry" />
        </mxCell>
        <mxCell id="klCD-9j0EHLRt9dn0OF4-22" style="edgeStyle=orthogonalEdgeStyle;rounded=0;orthogonalLoop=1;jettySize=auto;html=1;exitX=1;exitY=0.5;exitDx=0;exitDy=0;entryX=0;entryY=0.5;entryDx=0;entryDy=0;" edge="1" parent="1" source="klCD-9j0EHLRt9dn0OF4-6" target="klCD-9j0EHLRt9dn0OF4-13">
          <mxGeometry relative="1" as="geometry" />
        </mxCell>
        <mxCell id="klCD-9j0EHLRt9dn0OF4-23" value="No" style="edgeLabel;html=1;align=center;verticalAlign=middle;resizable=0;points=[];" vertex="1" connectable="0" parent="klCD-9j0EHLRt9dn0OF4-22">
          <mxGeometry relative="1" as="geometry">
            <mxPoint as="offset" />
          </mxGeometry>
        </mxCell>
        <mxCell id="klCD-9j0EHLRt9dn0OF4-24" style="edgeStyle=orthogonalEdgeStyle;rounded=0;orthogonalLoop=1;jettySize=auto;html=1;exitX=0.5;exitY=1;exitDx=0;exitDy=0;entryX=0.5;entryY=0;entryDx=0;entryDy=0;" edge="1" parent="1" source="klCD-9j0EHLRt9dn0OF4-6" target="klCD-9j0EHLRt9dn0OF4-8">
          <mxGeometry relative="1" as="geometry" />
        </mxCell>
        <mxCell id="klCD-9j0EHLRt9dn0OF4-6" value="Check if transaction&amp;nbsp;&lt;div&gt;was succesful&lt;/div&gt;" style="rhombus;whiteSpace=wrap;html=1;" vertex="1" parent="1">
          <mxGeometry x="355.5" y="600" width="140" height="130" as="geometry" />
        </mxCell>
        <mxCell id="klCD-9j0EHLRt9dn0OF4-8" value="Process Transaction and calculate balance" style="shape=process;whiteSpace=wrap;html=1;backgroundOutline=1;" vertex="1" parent="1">
          <mxGeometry x="365.5" y="820" width="120" height="60" as="geometry" />
        </mxCell>
        <mxCell id="klCD-9j0EHLRt9dn0OF4-26" style="edgeStyle=orthogonalEdgeStyle;rounded=0;orthogonalLoop=1;jettySize=auto;html=1;exitX=0.5;exitY=1;exitDx=0;exitDy=0;exitPerimeter=0;entryX=0.5;entryY=0;entryDx=0;entryDy=0;" edge="1" parent="1" source="klCD-9j0EHLRt9dn0OF4-10" target="klCD-9j0EHLRt9dn0OF4-11">
          <mxGeometry relative="1" as="geometry" />
        </mxCell>
        <mxCell id="klCD-9j0EHLRt9dn0OF4-10" value="Save transaction&amp;nbsp;&lt;div&gt;and update balance&lt;/div&gt;" style="shape=cylinder3;whiteSpace=wrap;html=1;boundedLbl=1;backgroundOutline=1;size=15;" vertex="1" parent="1">
          <mxGeometry x="388" y="960" width="74.5" height="90" as="geometry" />
        </mxCell>
        <mxCell id="klCD-9j0EHLRt9dn0OF4-27" style="edgeStyle=orthogonalEdgeStyle;rounded=0;orthogonalLoop=1;jettySize=auto;html=1;exitX=0.5;exitY=1;exitDx=0;exitDy=0;entryX=0.5;entryY=0;entryDx=0;entryDy=0;" edge="1" parent="1" source="klCD-9j0EHLRt9dn0OF4-11" target="klCD-9j0EHLRt9dn0OF4-12">
          <mxGeometry relative="1" as="geometry" />
        </mxCell>
        <mxCell id="klCD-9j0EHLRt9dn0OF4-11" value="Loan repayment&amp;nbsp;&lt;div&gt;was successful&lt;/div&gt;&lt;div&gt;your loan balance is&lt;/div&gt;&lt;div&gt;(balance)&lt;/div&gt;" style="shape=parallelogram;perimeter=parallelogramPerimeter;whiteSpace=wrap;html=1;fixedSize=1;" vertex="1" parent="1">
          <mxGeometry x="353" y="1130" width="145" height="80" as="geometry" />
        </mxCell>
        <mxCell id="klCD-9j0EHLRt9dn0OF4-12" value="Stop" style="ellipse;whiteSpace=wrap;html=1;" vertex="1" parent="1">
          <mxGeometry x="377" y="1280" width="95.5" height="50" as="geometry" />
        </mxCell>
        <mxCell id="klCD-9j0EHLRt9dn0OF4-13" value="Something went wrong&lt;div&gt;please try again&lt;/div&gt;" style="shape=parallelogram;perimeter=parallelogramPerimeter;whiteSpace=wrap;html=1;fixedSize=1;" vertex="1" parent="1">
          <mxGeometry x="580" y="635" width="120" height="60" as="geometry" />
        </mxCell>
        <mxCell id="klCD-9j0EHLRt9dn0OF4-25" style="edgeStyle=orthogonalEdgeStyle;rounded=0;orthogonalLoop=1;jettySize=auto;html=1;exitX=0.5;exitY=1;exitDx=0;exitDy=0;entryX=0.5;entryY=0;entryDx=0;entryDy=0;entryPerimeter=0;" edge="1" parent="1" source="klCD-9j0EHLRt9dn0OF4-8" target="klCD-9j0EHLRt9dn0OF4-10">
          <mxGeometry relative="1" as="geometry" />
        </mxCell>
        <mxCell id="klCD-9j0EHLRt9dn0OF4-28" value="" style="endArrow=classic;html=1;rounded=0;exitX=1;exitY=0.5;exitDx=0;exitDy=0;" edge="1" parent="1" source="klCD-9j0EHLRt9dn0OF4-13">
          <mxGeometry width="50" height="50" relative="1" as="geometry">
            <mxPoint x="686" y="671" as="sourcePoint" />
            <mxPoint x="425" y="1250" as="targetPoint" />
            <Array as="points">
              <mxPoint x="746" y="665" />
              <mxPoint x="750" y="1250" />
            </Array>
          </mxGeometry>
        </mxCell>
        <mxCell id="klCD-9j0EHLRt9dn0OF4-29" value="" style="endArrow=classic;html=1;rounded=0;" edge="1" parent="1" source="klCD-9j0EHLRt9dn0OF4-4">
          <mxGeometry width="50" height="50" relative="1" as="geometry">
            <mxPoint x="154.2638036809816" y="410.00453987730066" as="sourcePoint" />
            <mxPoint x="425" y="1240" as="targetPoint" />
            <Array as="points">
              <mxPoint x="80" y="335" />
              <mxPoint x="80" y="1240" />
            </Array>
          </mxGeometry>
        </mxCell>
      </root>
    </mxGraphModel>
  </diagram>
</mxfile>
